<svg xmlns="http://www.w3.org/2000/svg" viewBox="0 0 306.24 60"><defs><style>.cls-1{isolation:isolate;}.cls-2{fill:#ed130c;}.cls-3{font-size:16px;font-family:Arial, Helvetica, sans-serif;font-weight:700;}.cls-3,.cls-4{fill:#fff;}.cls-4{fill-rule:evenodd;}.cls-5{fill:none;stroke:#3a4c56;stroke-miterlimit:10;stroke-width:2px;opacity:0.5;mix-blend-mode:multiply;}</style></defs><title>cotiza con gmail</title><g class="cls-1"><g id="Capa_2" data-name="Capa 2"><g id="Capa_1-2" data-name="Capa 1"><rect class="cls-2" width="306.24" height="60" rx="12" ry="12"/><text class="cls-3" transform="translate(73.51 34.67)">Cotiza con Gmail</text><path class="cls-4" d="M15.23,22.82A13.92,13.92,0,0,1,17.89,19a15.43,15.43,0,0,1,8.93-4.77,15.45,15.45,0,0,1,13.11,3.64c.24.21.3.33,0,.59-1.34,1.31-2.66,2.65-4,4-.14.14-.23.31-.47.09a9.2,9.2,0,0,0-12.37.27,10.16,10.16,0,0,0-2.65,4.06l-.25-.17Z"/><path class="cls-4" d="M20.45,33.1a10.66,10.66,0,0,0,2,3.35,9.4,9.4,0,0,0,8.39,3.21,10.1,10.1,0,0,0,4.29-1.49c.13.11.25.23.39.34l4.65,3.62a13.42,13.42,0,0,1-6,3.28,16.13,16.13,0,0,1-14.67-3,14.75,14.75,0,0,1-4.24-5.29Z"/><path class="cls-4" d="M40.13,42.13l-4.65-3.62c-.14-.11-.26-.23-.39-.34a8.17,8.17,0,0,0,2.51-3,11,11,0,0,0,.54-1.49c.1-.35.07-.48-.36-.48-2.58,0-5.16,0-7.74,0-.55,0-.55,0-.55-.56,0-1.75,0-3.5,0-5.25,0-.34.06-.47.44-.47,4.76,0,9.52,0,14.28,0,.25,0,.42,0,.46.33A17.56,17.56,0,0,1,42.6,39.12,11.93,11.93,0,0,1,40.13,42.13Z"/><path class="cls-4" d="M20.45,33.1l-5.23,4.06a14.31,14.31,0,0,1-1.58-5A15.9,15.9,0,0,1,15,23.27c.08-.16.17-.3.25-.45l5,3.85.25.17A10.07,10.07,0,0,0,20.45,33.1Z"/><line class="cls-5" x1="57.85" x2="57.85" y2="60"/></g></g></g></svg>