<svg xmlns="http://www.w3.org/2000/svg" viewBox="0 0 306.24 60"><defs><style>.cls-1{isolation:isolate;}.cls-2{fill:#2ab4bc;}.cls-3{font-size:16px;font-family:Arial, Helvetica, sans-serif, Roboto;font-weight:700;}.cls-3,.cls-5,.cls-6{fill:#fff;}.cls-4{letter-spacing:-0.01em;}.cls-5{fill-rule:evenodd;}.cls-7{fill:none;stroke:#3a4c56;stroke-miterlimit:10;stroke-width:2px;opacity:0.5;mix-blend-mode:multiply;}</style></defs><title>Cotiza con koomkin</title><g class="cls-1"><g id="Capa_2" data-name="Capa 2"><g id="Capa_1-2" data-name="Capa 1"><rect class="cls-2" width="306.24" height="60" rx="12" ry="12"/><text class="cls-3" transform="translate(73.51 34.67)">Cotiza con <tspan class="cls-4" x="85.2" y="0">K</tspan><tspan x="95.15" y="0">oomkin</tspan></text><path class="cls-5" d="M24,27.08l2.29-.78a7.52,7.52,0,0,0-5.16-4.39,8.76,8.76,0,0,1,7.9,3,.58.58,0,0,0,.77.22c.5-.22,1-.38,1.65-.59-.79,1.73-1.55,3.37-2.31,5.06L24,27.08"/><path class="cls-5" d="M27.13,35.35l2.14-5L34.1,33l-2,.73A7.53,7.53,0,0,0,37,38.07a8.52,8.52,0,0,1-7-2.3A7.66,7.66,0,0,1,29.3,35a.39.39,0,0,0-.51-.15c-.53.21-1.07.4-1.6.59l-.06-.08"/><path class="cls-6" d="M20.83,22.05c-.53.18-1.09.32-1.6.55A7.9,7.9,0,0,0,14.31,29a7.33,7.33,0,0,0,2.19,6.25,10.85,10.85,0,0,0,4.6,2.87H20c-.37,0-.74,0-1.11,0A8.13,8.13,0,0,1,18,22a10,10,0,0,1,1.44-.11c.47,0,.94.07,1.41.11v.06"/><path class="cls-6" d="M37.5,38A8.09,8.09,0,0,0,37.31,22a8.17,8.17,0,0,1,8.31,12.83A8.06,8.06,0,0,1,37.5,38"/><line class="cls-7" x1="57.85" x2="57.85" y2="60"/></g></g></g></svg>