<svg xmlns="http://www.w3.org/2000/svg" viewBox="0 0 306.24 60"><defs><style>.cls-1{isolation:isolate;}.cls-2{fill:#1da1f3;}.cls-3{font-size:16px;font-family:Arial, Helvetica, sans-serif, Roboto;font-weight:700;}.cls-3,.cls-6{fill:#fff;}.cls-4{letter-spacing:-0.03em;}.cls-5{letter-spacing:-0.02em;}.cls-7{fill:none;stroke:#3a4c56;stroke-miterlimit:10;stroke-width:2px;opacity:0.5;mix-blend-mode:multiply;}</style></defs><title>cotiza con twitter</title><g class="cls-1"><g id="Capa_2" data-name="Capa 2"><g id="Capa_1-2" data-name="Capa 1"><rect class="cls-2" width="306.24" height="60" rx="12" ry="12"/><text class="cls-3" transform="translate(73.51 34.68)">Cotiza con<tspan class="cls-4" x="76.22" y="0"> </tspan><tspan class="cls-5" x="84.73" y="0">T</tspan><tspan x="94.27" y="0">witter</tspan></text><path class="cls-6" d="M23.93,41.55c10.72,0,16.58-8.89,16.58-16.59,0-.25,0-.51,0-.75a11.89,11.89,0,0,0,2.9-3,11.62,11.62,0,0,1-3.34.91,5.87,5.87,0,0,0,2.56-3.22,11.75,11.75,0,0,1-3.7,1.42A5.83,5.83,0,0,0,29,25.61a16.52,16.52,0,0,1-12-6.09,5.83,5.83,0,0,0,1.8,7.78,5.79,5.79,0,0,1-2.64-.73v.08a5.83,5.83,0,0,0,4.68,5.71,6,6,0,0,1-1.54.21,5.6,5.6,0,0,1-1.09-.11,5.83,5.83,0,0,0,5.44,4A11.65,11.65,0,0,1,16.38,39,12.81,12.81,0,0,1,15,38.93a16.53,16.53,0,0,0,8.94,2.62"/><line class="cls-7" x1="57.85" x2="57.85" y2="60"/></g></g></g></svg>